<svg width="18" height="18" viewBox="0 0 18 18" fill="none" xmlns="http://www.w3.org/2000/svg">
<path d="M13.5001 6.75C13.3249 6.74966 13.155 6.81069 13.0201 6.9225L9.00011 10.2825L4.97261 7.0425C4.89589 6.9802 4.80762 6.93368 4.71287 6.9056C4.61811 6.87753 4.51874 6.86846 4.42047 6.87891C4.3222 6.88937 4.22696 6.91914 4.14024 6.96652C4.05351 7.0139 3.977 7.07795 3.91511 7.155C3.85281 7.23171 3.80629 7.31999 3.77821 7.41474C3.75014 7.5095 3.74107 7.60886 3.75152 7.70714C3.76198 7.80541 3.79175 7.90064 3.83913 7.98737C3.88651 8.0741 3.95056 8.15061 4.02761 8.2125L8.52761 11.835C8.66181 11.9453 8.83014 12.0056 9.00386 12.0056C9.17758 12.0056 9.34591 11.9453 9.48011 11.835L13.9801 8.085C14.0561 8.02204 14.1188 7.94471 14.1648 7.85745C14.2109 7.77019 14.2392 7.67471 14.2483 7.57648C14.2573 7.47825 14.2469 7.37919 14.2176 7.28499C14.1883 7.19079 14.1408 7.10329 14.0776 7.0275C14.0078 6.94146 13.9198 6.87196 13.82 6.82398C13.7201 6.776 13.6109 6.75073 13.5001 6.75Z" fill="#9CA3AF"/>
</svg>
