<svg width="18" height="18" viewBox="0 0 18 18" fill="none" xmlns="http://www.w3.org/2000/svg">
<path d="M8.99996 6.00001C8.82472 5.99966 8.6549 6.0607 8.51996 6.17251L4.01996 9.92251C3.8668 10.0498 3.77048 10.2327 3.7522 10.4311C3.73391 10.6294 3.79516 10.8268 3.92246 10.98C4.04977 11.1332 4.2327 11.2295 4.43102 11.2478C4.62934 11.2661 4.8268 11.2048 4.97996 11.0775L8.99996 7.71751L13.02 10.9575C13.0967 11.0198 13.185 11.0663 13.2797 11.0944C13.3745 11.1225 13.4738 11.1315 13.5721 11.1211C13.6704 11.1106 13.7656 11.0809 13.8523 11.0335C13.9391 10.9861 14.0156 10.9221 14.0775 10.845C14.1461 10.7679 14.1982 10.6774 14.2303 10.5793C14.2624 10.4811 14.2738 10.3774 14.264 10.2746C14.2541 10.1718 14.2231 10.0721 14.173 9.98187C14.1228 9.8916 14.0546 9.81267 13.9725 9.75001L9.47246 6.12751C9.33365 6.03337 9.16729 5.98848 8.99996 6.00001Z" fill="#9CA3AF"/>
</svg>
