<svg width="24" height="25" viewBox="0 0 24 25" fill="none" xmlns="http://www.w3.org/2000/svg">
<path d="M20.5201 15.7224L18.7201 13.9124V9.45238C18.744 7.7962 18.1679 6.18729 17.0982 4.92271C16.0285 3.65814 14.5373 2.82331 12.9001 2.57238C11.9499 2.44724 10.9839 2.52619 10.0667 2.80395C9.14942 3.08171 8.30194 3.5519 7.5808 4.18314C6.85965 4.81438 6.28142 5.59215 5.88468 6.46457C5.48794 7.33699 5.28182 8.28399 5.28007 9.24238V13.9124L3.48007 15.7224C3.25398 15.9522 3.10066 16.2437 3.03927 16.5602C2.97789 16.8767 3.01117 17.2043 3.13495 17.502C3.25873 17.7997 3.46752 18.0544 3.73522 18.2341C4.00292 18.4138 4.31766 18.5106 4.64007 18.5124H8.00007V18.8524C8.04678 19.8676 8.49403 20.8229 9.2438 21.5089C9.99357 22.1949 10.9847 22.5558 12.0001 22.5124C13.0154 22.5558 14.0066 22.1949 14.7563 21.5089C15.5061 20.8229 15.9534 19.8676 16.0001 18.8524V18.5124H19.3601C19.6825 18.5106 19.9972 18.4138 20.2649 18.2341C20.5326 18.0544 20.7414 17.7997 20.8652 17.502C20.989 17.2043 21.0223 16.8767 20.9609 16.5602C20.8995 16.2437 20.7462 15.9522 20.5201 15.7224ZM14.0001 18.8524C13.9446 19.3334 13.7057 19.7744 13.3331 20.0837C12.9606 20.3929 12.4831 20.5465 12.0001 20.5124C11.5171 20.5465 11.0396 20.3929 10.667 20.0837C10.2944 19.7744 10.0555 19.3334 10.0001 18.8524V18.5124H14.0001V18.8524Z" fill="#1F2937"/>
</svg>
