<svg width="80" height="38" viewBox="0 0 80 38" fill="none" xmlns="http://www.w3.org/2000/svg">
<path d="M0.163574 30.003H4.08114V10.2989C4.39144 10.1825 4.54659 10.1437 4.77932 10.1437C5.39992 10.1437 5.59386 10.6092 5.59386 12.4322V30.003H9.51142V11.6564C9.51142 11.1522 9.47263 10.7255 9.43385 10.3377C9.70536 10.2213 9.97687 10.1437 10.2096 10.1437C10.8302 10.1437 11.0241 10.6092 11.0241 12.4322V30.003H14.9417V11.6564C14.9417 8.24311 13.8556 7.15706 12.1878 7.15706C11.0241 7.15706 9.93809 7.81645 9.16233 8.98008C8.73567 7.62251 7.88234 7.15706 6.75749 7.15706C5.71022 7.15706 4.66295 7.85523 4.08114 8.98008L3.65447 7.35099H0.163574V30.003Z" fill="#1B2130"/>
<path d="M25.3338 14.7207C25.3338 8.70857 23.2005 7.15706 20.8344 7.15706C18.3132 7.15706 16.335 8.70857 16.335 14.7207V14.9146H19.9423C19.9423 11.4237 20.2138 10.3377 20.6793 10.3377C21.1835 10.3377 21.455 11.4237 21.455 14.9146V16.6601C17.2272 17.2807 16.0247 18.9097 16.0247 23.8358C16.0247 29.0333 17.1108 30.197 18.7787 30.197C19.8259 30.197 20.8732 29.4988 21.455 28.3739L21.8817 30.003H25.3338V14.7207ZM21.455 19.3752V27.0552C21.1447 27.1715 20.9896 27.2103 20.7568 27.2103C20.1362 27.2103 19.9423 26.4346 19.9423 23.4091C19.9423 20.2285 20.2526 19.4916 21.455 19.3752Z" fill="#1B2130"/>
<path d="M31.2926 10.3377C32.0295 10.3377 32.301 12.1995 32.301 18.677C32.301 25.3097 32.0295 27.2103 31.2926 27.2103C31.0986 27.2103 30.9047 27.1715 30.672 27.0552V10.4928C30.9047 10.3764 31.0986 10.3377 31.2926 10.3377ZM30.672 36.8297V28.8006C31.2538 29.6539 32.1459 30.197 32.9992 30.197C34.9774 30.197 36.2962 28.3352 36.2962 18.677C36.2962 9.01887 34.9774 7.15706 32.9992 7.15706C31.9907 7.15706 31.1762 7.85523 30.672 8.94129L30.2453 7.35099H26.7544V36.8297H30.672Z" fill="#1B2130"/>
<path d="M37.5119 30.003H41.4295V0.524353H37.5119V30.003Z" fill="#1B2130"/>
<path d="M47.3883 7.15706C44.5955 7.15706 42.6174 8.9025 42.6174 18.677C42.6174 28.4515 44.5955 30.197 47.3883 30.197C49.7155 30.197 51.5773 28.4515 51.7325 22.6334L51.7713 21.3146H48.164L48.1252 22.4394C48.0089 25.8915 47.8537 27.0164 47.3883 27.0164C46.8452 27.0164 46.6125 25.2709 46.6125 19.3752H51.7713V15.9619C51.7713 8.9025 49.7155 7.15706 47.3883 7.15706ZM47.3883 10.3377C47.8925 10.3377 48.1252 11.8116 48.164 16.6601H46.6125C46.6513 11.8116 46.884 10.3377 47.3883 10.3377Z" fill="#1B2130"/>
<path d="M52.9664 30.003H56.884V11.6176C57.1555 11.5789 57.5434 11.5401 58.0088 11.5401C58.3967 11.5401 59.0173 11.6176 59.5991 11.734V7.15706C58.2803 7.15706 57.4658 7.89402 56.884 9.63947L56.3022 7.35099H52.9664V30.003Z" fill="#1B2130"/>
<path d="M69.3867 14.7207C69.3867 8.70857 67.2533 7.15706 64.8873 7.15706C62.3661 7.15706 60.3879 8.70857 60.3879 14.7207V14.9146H63.9952C63.9952 11.4237 64.2667 10.3377 64.7321 10.3377C65.2364 10.3377 65.5079 11.4237 65.5079 14.9146V16.6601C61.28 17.2807 60.0776 18.9097 60.0776 23.8358C60.0776 29.0333 61.1637 30.197 62.8315 30.197C63.8788 30.197 64.9261 29.4988 65.5079 28.3739L65.9346 30.003H69.3867V14.7207ZM65.5079 19.3752V27.0552C65.1976 27.1715 65.0424 27.2103 64.8097 27.2103C64.1891 27.2103 63.9952 26.4346 63.9952 23.4091C63.9952 20.2285 64.3055 19.4916 65.5079 19.3752Z" fill="#1B2130"/>
<path d="M70.4582 18.677C70.4582 28.3352 71.777 30.197 73.7551 30.197C74.6085 30.197 75.5006 29.6539 76.0824 28.8006L76.3927 30.003H80V0.524353H76.0824V8.94129C75.5782 7.85523 74.7636 7.15706 73.7551 7.15706C71.777 7.15706 70.4582 9.01887 70.4582 18.677ZM75.4618 27.2103C74.7248 27.2103 74.4533 25.3097 74.4533 18.677C74.4533 12.1995 74.7248 10.3377 75.4618 10.3377C75.6557 10.3377 75.8497 10.3764 76.0824 10.4928V27.0552C75.8497 27.1715 75.6557 27.2103 75.4618 27.2103Z" fill="#1B2130"/>
</svg>
