<svg width="24" height="16" viewBox="0 0 24 16" fill="none" xmlns="http://www.w3.org/2000/svg">
<path fill-rule="evenodd" clip-rule="evenodd" d="M7.46212 0.0475624C8.28094 -0.00405048 9.09882 7.85547e-05 9.91765 7.85547e-05C9.92329 7.85547e-05 14.0668 7.85547e-05 14.0668 7.85547e-05C14.9016 7.85547e-05 15.7195 -0.00405048 16.5379 0.0475624C17.2819 0.094014 18.0066 0.193111 18.728 0.41453C20.2466 0.880078 21.5727 1.85247 22.5313 3.23105C23.4842 4.60085 24 6.27776 24 7.99956C24 9.72343 23.4842 11.3993 22.5313 12.7691C21.5727 14.1472 20.2466 15.1201 18.728 15.5856C18.0066 15.807 17.2819 15.9056 16.5379 15.9526C15.7195 16.0042 14.9016 15.9996 14.0828 15.9996C14.0772 15.9996 9.93271 16.0001 9.93271 16.0001C9.09882 15.9996 8.28094 16.0042 7.46212 15.9526C6.71859 15.9056 5.99388 15.807 5.27247 15.5856C3.75388 15.1201 2.42776 14.1472 1.46918 12.7691C0.516235 11.3993 0 9.72343 0 8.00008C0 6.27776 0.516235 4.60085 1.46918 3.23105C2.42776 1.85247 3.75388 0.880078 5.27247 0.41453C5.99388 0.193111 6.71859 0.094014 7.46212 0.0475624Z" fill="#1F2937"/>
<mask id="mask0_342_245" style="mask-type:luminance" maskUnits="userSpaceOnUse" x="0" y="0" width="24" height="16">
<path fill-rule="evenodd" clip-rule="evenodd" d="M7.46212 0.0475624C8.28094 -0.00405047 9.09882 7.85547e-05 9.91765 7.85547e-05C9.9233 7.85547e-05 14.0668 7.85547e-05 14.0668 7.85547e-05C14.9016 7.85547e-05 15.7195 -0.00405047 16.5379 0.0475624C17.2819 0.094014 18.0066 0.193111 18.728 0.41453C20.2466 0.880078 21.5727 1.85247 22.5313 3.23105C23.4842 4.60085 24 6.27776 24 7.99956C24 9.72343 23.4842 11.3993 22.5313 12.7691C21.5727 14.1472 20.2466 15.1201 18.728 15.5856C18.0066 15.807 17.2819 15.9056 16.5379 15.9526C15.7195 16.0042 14.9016 15.9996 14.0828 15.9996C14.0772 15.9996 9.93271 16.0001 9.93271 16.0001C9.09882 15.9996 8.28094 16.0042 7.46212 15.9526C6.71859 15.9056 5.99388 15.807 5.27247 15.5856C3.75388 15.1201 2.42776 14.1472 1.46918 12.7691C0.516235 11.3993 0 9.72343 0 8.00008C0 6.27775 0.516235 4.60085 1.46918 3.23105C2.42776 1.85247 3.75388 0.880078 5.27247 0.41453C5.99388 0.193111 6.71859 0.094014 7.46212 0.0475624Z" fill="white"/>
</mask>
<g mask="url(#mask0_342_245)">
<g filter="url(#filter0_dd_342_245)">
<path fill-rule="evenodd" clip-rule="evenodd" d="M16 15C19.866 15 23 11.866 23 8C23 4.13401 19.866 1 16 1C12.134 1 9 4.13401 9 8C9 11.866 12.134 15 16 15Z" fill="white"/>
</g>
</g>
<defs>
<filter id="filter0_dd_342_245" x="2.54839" y="-3.03226" width="26.9032" height="26.9032" filterUnits="userSpaceOnUse" color-interpolation-filters="sRGB">
<feFlood flood-opacity="0" result="BackgroundImageFix"/>
<feColorMatrix in="SourceAlpha" type="matrix" values="0 0 0 0 0 0 0 0 0 0 0 0 0 0 0 0 0 0 127 0" result="hardAlpha"/>
<feOffset dy="2.41935"/>
<feGaussianBlur stdDeviation="0.403226"/>
<feColorMatrix type="matrix" values="0 0 0 0 0 0 0 0 0 0 0 0 0 0 0 0 0 0 0.06 0"/>
<feBlend mode="normal" in2="BackgroundImageFix" result="effect1_dropShadow_342_245"/>
<feColorMatrix in="SourceAlpha" type="matrix" values="0 0 0 0 0 0 0 0 0 0 0 0 0 0 0 0 0 0 127 0" result="hardAlpha"/>
<feOffset dy="2.41935"/>
<feGaussianBlur stdDeviation="3.22581"/>
<feColorMatrix type="matrix" values="0 0 0 0 0 0 0 0 0 0 0 0 0 0 0 0 0 0 0.15 0"/>
<feBlend mode="normal" in2="effect1_dropShadow_342_245" result="effect2_dropShadow_342_245"/>
<feBlend mode="normal" in="SourceGraphic" in2="effect2_dropShadow_342_245" result="shape"/>
</filter>
</defs>
</svg>
