<svg width="18" height="18" viewBox="0 0 18 18" fill="none" xmlns="http://www.w3.org/2000/svg">
<path d="M7.5001 14.25C7.32486 14.2503 7.15503 14.1893 7.0201 14.0775C6.94416 14.0145 6.88138 13.9372 6.83536 13.85C6.78935 13.7627 6.761 13.6672 6.75195 13.569C6.74289 13.4707 6.7533 13.3717 6.78258 13.2775C6.81187 13.1833 6.85945 13.0958 6.9226 13.02L10.2826 9L7.0426 4.9725C6.9803 4.89579 6.93378 4.80751 6.9057 4.71276C6.87763 4.618 6.86856 4.51864 6.87901 4.42036C6.88947 4.32209 6.91924 4.22686 6.96662 4.14013C7.014 4.0534 7.07805 3.97689 7.1551 3.915C7.2327 3.84672 7.32357 3.79522 7.42202 3.76373C7.52047 3.73224 7.62436 3.72144 7.72718 3.732C7.83 3.74256 7.92953 3.77427 8.01951 3.82512C8.1095 3.87597 8.188 3.94487 8.2501 4.0275L11.8726 8.5275C11.9829 8.6617 12.0432 8.83003 12.0432 9.00375C12.0432 9.17747 11.9829 9.3458 11.8726 9.48L8.1226 13.98C8.04736 14.0708 7.95179 14.1425 7.84363 14.1894C7.73547 14.2363 7.61778 14.2571 7.5001 14.25Z" fill="#1F2937"/>
</svg>
