<svg width="13" height="12" viewBox="0 0 13 12" fill="none" xmlns="http://www.w3.org/2000/svg">
<path d="M11.75 5.25H2.855L5.5775 1.98C5.7048 1.82684 5.76605 1.62938 5.74777 1.43106C5.72948 1.23274 5.63316 1.0498 5.48 0.922501C5.32684 0.795197 5.12938 0.73395 4.93106 0.752235C4.73274 0.77052 4.5498 0.866838 4.4225 1.02L0.6725 5.52C0.647271 5.55579 0.624709 5.5934 0.605 5.6325C0.605 5.67 0.605 5.6925 0.5525 5.73C0.518505 5.816 0.500706 5.90753 0.5 6C0.500706 6.09247 0.518505 6.18401 0.5525 6.27C0.5525 6.3075 0.5525 6.33 0.605 6.3675C0.624709 6.40661 0.647271 6.44421 0.6725 6.48L4.4225 10.98C4.49302 11.0647 4.58132 11.1327 4.68113 11.1794C4.78095 11.2261 4.88982 11.2502 5 11.25C5.17524 11.2503 5.34507 11.1893 5.48 11.0775C5.55594 11.0145 5.61872 10.9372 5.66473 10.85C5.71075 10.7627 5.7391 10.6672 5.74815 10.569C5.75721 10.4707 5.7468 10.3717 5.71751 10.2775C5.68823 10.1833 5.64065 10.0958 5.5775 10.02L2.855 6.75H11.75C11.9489 6.75 12.1397 6.67098 12.2803 6.53033C12.421 6.38968 12.5 6.19891 12.5 6C12.5 5.80109 12.421 5.61032 12.2803 5.46967C12.1397 5.32902 11.9489 5.25 11.75 5.25Z" fill="#1F2937"/>
</svg>
