<svg width="24" height="25" viewBox="0 0 24 25" fill="none" xmlns="http://www.w3.org/2000/svg">
<path d="M20 3.51239H4C2.897 3.51239 2 4.40939 2 5.51239V19.5124C2 20.6154 2.897 21.5124 4 21.5124H20C21.103 21.5124 22 20.6154 22 19.5124V5.51239C22 4.40939 21.103 3.51239 20 3.51239ZM4 19.5124V7.51239H20L20.002 19.5124H4Z" fill="#1F2937"/>
<path d="M9.29294 9.80539L5.58594 13.5124L9.29294 17.2194L10.7069 15.8054L8.41394 13.5124L10.7069 11.2194L9.29294 9.80539ZM14.7069 9.80539L13.2929 11.2194L15.5859 13.5124L13.2929 15.8054L14.7069 17.2194L18.4139 13.5124L14.7069 9.80539Z" fill="black"/>
</svg>
